<?xml version="1.0" encoding="utf-8"?>
<!-- Generator: Adobe Illustrator 16.0.0, SVG Export Plug-In . SVG Version: 6.00 Build 0)  -->
<!DOCTYPE svg PUBLIC "-//W3C//DTD SVG 1.1//EN" "http://www.w3.org/Graphics/SVG/1.1/DTD/svg11.dtd">
<svg version="1.1" id="Laag_1" xmlns="http://www.w3.org/2000/svg" xmlns:xlink="http://www.w3.org/1999/xlink" x="0px" y="0px"
	 width="550px" height="400px" viewBox="0 0 550 400" enable-background="new 0 0 550 400" xml:space="preserve">
<g>
	<path fill-rule="evenodd" clip-rule="evenodd" d="M352.2,204.9c0.899,4.666,0,8.949-2.7,12.85c-0.434,0.8-1.017,1.616-1.75,2.45
		c-0.066,0.066-0.116,0.133-0.15,0.2L325.4,255.6c-0.567,0.867-1.4,1.733-2.5,2.601c-2.233,1.733-4.667,2.583-7.301,2.55
		L296.9,260.5l-0.25,14.5L278.3,243.1l18.45-34.149l-0.4,16.649l25.851,0.2L302,190.65l32.4-18.7l16.449,28.75
		C351.483,202.066,351.934,203.467,352.2,204.9z M224.35,162.55l16.1-29c0.833-1.2,1.8-2.3,2.9-3.3c3.533-3.167,7.667-4.6,12.4-4.3
		l2.9,0.5l41.95,0.45l3.551,0.8c2.633,1,4.6,2.633,5.899,4.9l9.5,16.15l12.55-7.3l-17.8,32.2l-38.8,1.9l14.5-8.25l-13.1-22.25
		l-19.75,35.55L224.35,162.55z M198.4,177.85h36.85l20.4,33L241.4,202.2l-12.9,22.3h40.45l0.05,37.45h-31.4
		c-1.833,0.1-3.867-0.25-6.1-1.05c-4.433-1.534-7.667-4.434-9.7-8.7c-0.466-0.8-0.867-1.717-1.2-2.75l-19.7-37.05
		c-0.467-0.934-0.8-2.084-1-3.45c-0.4-2.767,0.083-5.283,1.45-7.55l9.55-16.101L198.4,177.85z"/>
</g>
</svg>
